<mxfile host="app.diagrams.net" agent="Mozilla/5.0 (Windows NT 10.0; Win64; x64) AppleWebKit/537.36 (KHTML, like Gecko) Chrome/141.0.0.0 Safari/537.36" version="28.2.5">
  <diagram name="Pagina-1" id="stNr674Lw7fU6HAwprpm">
    <mxGraphModel dx="490" dy="260" grid="1" gridSize="10" guides="1" tooltips="1" connect="1" arrows="1" fold="1" page="1" pageScale="1" pageWidth="827" pageHeight="1169" math="1" shadow="0">
      <root>
        <mxCell id="0" />
        <mxCell id="1" parent="0" />
        <mxCell id="ms9VW64ctnIDlIvRrz19-2" value="" style="shape=waypoint;sketch=0;fillStyle=solid;size=6;pointerEvents=1;points=[];fillColor=none;resizable=0;rotatable=0;perimeter=centerPerimeter;snapToPoint=1;" vertex="1" parent="1">
          <mxGeometry x="200" y="171" width="20" height="20" as="geometry" />
        </mxCell>
        <mxCell id="ms9VW64ctnIDlIvRrz19-3" value="" style="pointerEvents=1;verticalLabelPosition=bottom;shadow=0;dashed=0;align=center;html=1;verticalAlign=top;shape=mxgraph.electrical.resistors.resistor_2;" vertex="1" parent="1">
          <mxGeometry x="270" y="75" width="50" height="10" as="geometry" />
        </mxCell>
        <mxCell id="ms9VW64ctnIDlIvRrz19-4" style="edgeStyle=orthogonalEdgeStyle;rounded=0;orthogonalLoop=1;jettySize=auto;html=1;endArrow=none;endFill=0;entryX=0;entryY=0.5;entryDx=0;entryDy=0;entryPerimeter=0;" edge="1" parent="1" source="ms9VW64ctnIDlIvRrz19-1" target="ms9VW64ctnIDlIvRrz19-3">
          <mxGeometry relative="1" as="geometry">
            <mxPoint x="210.00000000000006" y="81.50000000000003" as="sourcePoint" />
            <mxPoint x="270" y="80" as="targetPoint" />
            <Array as="points" />
          </mxGeometry>
        </mxCell>
        <mxCell id="ms9VW64ctnIDlIvRrz19-7" value="" style="pointerEvents=1;verticalLabelPosition=bottom;shadow=0;dashed=0;align=center;html=1;verticalAlign=top;shape=mxgraph.electrical.inductors.inductor_5;" vertex="1" parent="1">
          <mxGeometry x="320" y="71" width="50" height="14" as="geometry" />
        </mxCell>
        <mxCell id="ms9VW64ctnIDlIvRrz19-9" value="" style="endArrow=none;html=1;rounded=0;entryX=1;entryY=0.645;entryDx=0;entryDy=0;entryPerimeter=0;" edge="1" parent="1" target="ms9VW64ctnIDlIvRrz19-7">
          <mxGeometry width="50" height="50" relative="1" as="geometry">
            <mxPoint x="380" y="110" as="sourcePoint" />
            <mxPoint x="390" y="90" as="targetPoint" />
            <Array as="points">
              <mxPoint x="380" y="80" />
            </Array>
          </mxGeometry>
        </mxCell>
        <mxCell id="ms9VW64ctnIDlIvRrz19-10" value="" style="rounded=0;whiteSpace=wrap;html=1;" vertex="1" parent="1">
          <mxGeometry x="360" y="110" width="30" height="10" as="geometry" />
        </mxCell>
        <mxCell id="ms9VW64ctnIDlIvRrz19-11" value="" style="rounded=0;whiteSpace=wrap;html=1;" vertex="1" parent="1">
          <mxGeometry x="360" y="140" width="30" height="10" as="geometry" />
        </mxCell>
        <mxCell id="ms9VW64ctnIDlIvRrz19-12" style="edgeStyle=orthogonalEdgeStyle;rounded=0;orthogonalLoop=1;jettySize=auto;html=1;entryX=0.641;entryY=1.067;entryDx=0;entryDy=0;entryPerimeter=0;endArrow=none;endFill=0;" edge="1" parent="1" source="ms9VW64ctnIDlIvRrz19-2" target="ms9VW64ctnIDlIvRrz19-11">
          <mxGeometry relative="1" as="geometry" />
        </mxCell>
        <mxCell id="ms9VW64ctnIDlIvRrz19-13" value="+" style="text;html=1;align=center;verticalAlign=middle;whiteSpace=wrap;rounded=0;" vertex="1" parent="1">
          <mxGeometry x="200" y="55" width="20" height="20" as="geometry" />
        </mxCell>
        <mxCell id="ms9VW64ctnIDlIvRrz19-15" value="-" style="text;html=1;align=center;verticalAlign=middle;whiteSpace=wrap;rounded=0;" vertex="1" parent="1">
          <mxGeometry x="200" y="181" width="20" height="20" as="geometry" />
        </mxCell>
        <mxCell id="ms9VW64ctnIDlIvRrz19-16" value="-" style="text;html=1;align=center;verticalAlign=middle;whiteSpace=wrap;rounded=0;" vertex="1" parent="1">
          <mxGeometry x="340" y="135" width="20" height="20" as="geometry" />
        </mxCell>
        <mxCell id="ms9VW64ctnIDlIvRrz19-17" value="+" style="text;html=1;align=center;verticalAlign=middle;whiteSpace=wrap;rounded=0;" vertex="1" parent="1">
          <mxGeometry x="340" y="105" width="20" height="20" as="geometry" />
        </mxCell>
        <mxCell id="ms9VW64ctnIDlIvRrz19-18" value="\(R_a\)" style="text;html=1;align=center;verticalAlign=middle;whiteSpace=wrap;rounded=0;" vertex="1" parent="1">
          <mxGeometry x="280" y="51" width="30" height="20" as="geometry" />
        </mxCell>
        <mxCell id="ms9VW64ctnIDlIvRrz19-19" value="\(L_a\)" style="text;html=1;align=center;verticalAlign=middle;whiteSpace=wrap;rounded=0;" vertex="1" parent="1">
          <mxGeometry x="330" y="51" width="30" height="20" as="geometry" />
        </mxCell>
        <mxCell id="ms9VW64ctnIDlIvRrz19-23" value="" style="edgeStyle=orthogonalEdgeStyle;rounded=0;orthogonalLoop=1;jettySize=auto;html=1;entryDx=0;entryDy=0;entryPerimeter=0;endArrow=none;endFill=0;" edge="1" parent="1" target="ms9VW64ctnIDlIvRrz19-1">
          <mxGeometry relative="1" as="geometry">
            <mxPoint x="210.00000000000006" y="81.50000000000003" as="sourcePoint" />
            <mxPoint x="270.00000000000006" y="80.49999999999997" as="targetPoint" />
            <Array as="points" />
          </mxGeometry>
        </mxCell>
        <mxCell id="ms9VW64ctnIDlIvRrz19-1" value="" style="shape=waypoint;sketch=0;fillStyle=solid;size=6;pointerEvents=1;points=[];fillColor=none;resizable=0;rotatable=0;perimeter=centerPerimeter;snapToPoint=1;" vertex="1" parent="1">
          <mxGeometry x="200" y="70" width="20" height="20" as="geometry" />
        </mxCell>
        <mxCell id="ms9VW64ctnIDlIvRrz19-25" value="" style="endArrow=classic;html=1;rounded=0;fillColor=#0050ef;strokeColor=#001DBC;" edge="1" parent="1">
          <mxGeometry width="50" height="50" relative="1" as="geometry">
            <mxPoint x="230" y="79.88" as="sourcePoint" />
            <mxPoint x="270" y="79.88" as="targetPoint" />
          </mxGeometry>
        </mxCell>
        <mxCell id="ms9VW64ctnIDlIvRrz19-26" value="\(i_a\)" style="edgeLabel;html=1;align=center;verticalAlign=middle;resizable=0;points=[];" vertex="1" connectable="0" parent="ms9VW64ctnIDlIvRrz19-25">
          <mxGeometry x="0.0012" y="1" relative="1" as="geometry">
            <mxPoint as="offset" />
          </mxGeometry>
        </mxCell>
        <mxCell id="ms9VW64ctnIDlIvRrz19-27" value="\(v_a\)" style="text;html=1;align=center;verticalAlign=middle;whiteSpace=wrap;rounded=0;" vertex="1" parent="1">
          <mxGeometry x="190" y="120" width="30" height="20" as="geometry" />
        </mxCell>
        <mxCell id="ms9VW64ctnIDlIvRrz19-28" value="\(v_{emf}\)" style="text;html=1;align=center;verticalAlign=middle;whiteSpace=wrap;rounded=0;" vertex="1" parent="1">
          <mxGeometry x="310" y="120" width="30" height="20" as="geometry" />
        </mxCell>
        <mxCell id="ms9VW64ctnIDlIvRrz19-29" value="" style="ellipse;whiteSpace=wrap;html=1;aspect=fixed;" vertex="1" parent="1">
          <mxGeometry x="365" y="120" width="20" height="20" as="geometry" />
        </mxCell>
        <mxCell id="ms9VW64ctnIDlIvRrz19-34" style="edgeStyle=orthogonalEdgeStyle;rounded=0;orthogonalLoop=1;jettySize=auto;html=1;endArrow=none;endFill=0;" edge="1" parent="1" source="ms9VW64ctnIDlIvRrz19-32">
          <mxGeometry relative="1" as="geometry">
            <mxPoint x="570" y="130" as="targetPoint" />
          </mxGeometry>
        </mxCell>
        <mxCell id="ms9VW64ctnIDlIvRrz19-32" value="" style="shape=cylinder3;whiteSpace=wrap;html=1;boundedLbl=1;backgroundOutline=1;size=15;rotation=-90;" vertex="1" parent="1">
          <mxGeometry x="480" y="95.5" width="50" height="69" as="geometry" />
        </mxCell>
        <mxCell id="ms9VW64ctnIDlIvRrz19-35" value="\(I_m\)" style="text;html=1;align=center;verticalAlign=middle;whiteSpace=wrap;rounded=0;" vertex="1" parent="1">
          <mxGeometry x="500" y="120" width="30" height="20" as="geometry" />
        </mxCell>
        <mxCell id="ms9VW64ctnIDlIvRrz19-38" value="" style="endArrow=none;html=1;rounded=0;curved=1;fillColor=#b1ddf0;strokeColor=#10739e;" edge="1" parent="1">
          <mxGeometry width="50" height="50" relative="1" as="geometry">
            <mxPoint x="460" y="154.5" as="sourcePoint" />
            <mxPoint x="500" y="154.5" as="targetPoint" />
            <Array as="points">
              <mxPoint x="470" y="144.5" />
              <mxPoint x="480" y="154.5" />
              <mxPoint x="490" y="164.5" />
            </Array>
          </mxGeometry>
        </mxCell>
        <mxCell id="ms9VW64ctnIDlIvRrz19-39" value="" style="endArrow=none;html=1;rounded=0;curved=1;fillColor=#b1ddf0;strokeColor=#10739e;" edge="1" parent="1">
          <mxGeometry width="50" height="50" relative="1" as="geometry">
            <mxPoint x="470" y="154.5" as="sourcePoint" />
            <mxPoint x="510" y="154.5" as="targetPoint" />
            <Array as="points">
              <mxPoint x="480" y="144.5" />
              <mxPoint x="490" y="154.5" />
              <mxPoint x="500" y="164.5" />
            </Array>
          </mxGeometry>
        </mxCell>
        <mxCell id="ms9VW64ctnIDlIvRrz19-40" value="" style="endArrow=none;html=1;rounded=0;curved=1;fillColor=#b1ddf0;strokeColor=#10739e;" edge="1" parent="1">
          <mxGeometry width="50" height="50" relative="1" as="geometry">
            <mxPoint x="485" y="154.5" as="sourcePoint" />
            <mxPoint x="525" y="154.5" as="targetPoint" />
            <Array as="points">
              <mxPoint x="495" y="144.5" />
              <mxPoint x="505" y="154.5" />
              <mxPoint x="515" y="164.5" />
            </Array>
          </mxGeometry>
        </mxCell>
        <mxCell id="ms9VW64ctnIDlIvRrz19-41" value="\(F_m\)" style="text;html=1;align=center;verticalAlign=middle;whiteSpace=wrap;rounded=0;" vertex="1" parent="1">
          <mxGeometry x="480" y="161" width="30" height="20" as="geometry" />
        </mxCell>
        <mxCell id="ms9VW64ctnIDlIvRrz19-49" value="" style="html=1;verticalLabelPosition=bottom;align=center;labelBackgroundColor=#ffffff;verticalAlign=top;strokeWidth=1;shadow=0;dashed=0;shape=mxgraph.ios7.icons.reload;" vertex="1" parent="1">
          <mxGeometry x="440" y="115" width="10" height="30" as="geometry" />
        </mxCell>
        <mxCell id="ms9VW64ctnIDlIvRrz19-50" value="" style="html=1;verticalLabelPosition=bottom;align=center;labelBackgroundColor=#ffffff;verticalAlign=top;strokeWidth=1;shadow=0;dashed=0;shape=mxgraph.ios7.icons.reload;rotation=-180;" vertex="1" parent="1">
          <mxGeometry x="550" y="115" width="10" height="30" as="geometry" />
        </mxCell>
        <mxCell id="ms9VW64ctnIDlIvRrz19-51" value="\(\tau_m\)" style="text;html=1;align=center;verticalAlign=middle;whiteSpace=wrap;rounded=0;" vertex="1" parent="1">
          <mxGeometry x="390" y="85" width="30" height="20" as="geometry" />
        </mxCell>
        <mxCell id="ms9VW64ctnIDlIvRrz19-52" value="\(\omega\)" style="text;html=1;align=center;verticalAlign=middle;whiteSpace=wrap;rounded=0;" vertex="1" parent="1">
          <mxGeometry x="440" y="90" width="30" height="20" as="geometry" />
        </mxCell>
        <mxCell id="ms9VW64ctnIDlIvRrz19-53" value="\(\tau_{load}\)" style="text;html=1;align=center;verticalAlign=middle;whiteSpace=wrap;rounded=0;" vertex="1" parent="1">
          <mxGeometry x="540" y="90" width="30" height="20" as="geometry" />
        </mxCell>
        <mxCell id="ms9VW64ctnIDlIvRrz19-55" value="" style="endArrow=none;html=1;rounded=0;exitX=0.189;exitY=0.204;exitDx=0;exitDy=0;exitPerimeter=0;startArrow=classic;startFill=1;endFill=0;fillColor=#a20025;strokeColor=#6F0000;strokeWidth=2;" edge="1" parent="1">
          <mxGeometry width="50" height="50" relative="1" as="geometry">
            <mxPoint x="404.76" y="105" as="sourcePoint" />
            <mxPoint x="404.87" y="143.88" as="targetPoint" />
          </mxGeometry>
        </mxCell>
        <mxCell id="ms9VW64ctnIDlIvRrz19-91" value="" style="endArrow=none;html=1;rounded=0;exitX=1;exitY=0.5;exitDx=0;exitDy=0;" edge="1" parent="1">
          <mxGeometry width="50" height="50" relative="1" as="geometry">
            <mxPoint x="385" y="129.83" as="sourcePoint" />
            <mxPoint x="480" y="129.97" as="targetPoint" />
          </mxGeometry>
        </mxCell>
        <mxCell id="ms9VW64ctnIDlIvRrz19-93" value="" style="endArrow=classic;html=1;rounded=0;exitX=0.189;exitY=0.204;exitDx=0;exitDy=0;exitPerimeter=0;fillColor=#a20025;strokeColor=#6F0000;strokeWidth=2;" edge="1" parent="1">
          <mxGeometry width="50" height="50" relative="1" as="geometry">
            <mxPoint x="400" y="120" as="sourcePoint" />
            <mxPoint x="400.11" y="158.88" as="targetPoint" />
          </mxGeometry>
        </mxCell>
      </root>
    </mxGraphModel>
  </diagram>
</mxfile>
